<svg width="24" height="24" viewBox="0 0 24 24" fill="none" xmlns="http://www.w3.org/2000/svg">
<path fill-rule="evenodd" clip-rule="evenodd" d="M12.0005 2.75C9.95586 2.75 8.31055 4.40311 8.31055 6.44C8.31055 8.42302 9.85962 10.032 11.8154 10.1189C11.934 10.1106 12.0593 10.1102 12.1776 10.1188C14.1314 10.031 15.6815 8.42308 15.6905 6.43847C15.6897 4.40339 14.0358 2.75 12.0005 2.75ZM6.81055 6.44C6.81055 3.57689 9.12523 1.25 12.0005 1.25C14.8648 1.25 17.1905 3.57579 17.1905 6.44L17.1905 6.44313C17.1789 9.24352 14.9715 11.5259 12.1857 11.6196C12.1524 11.6207 12.1191 11.6196 12.0859 11.6163C12.0377 11.6115 11.9656 11.6108 11.8984 11.6169C11.8675 11.6197 11.8364 11.6206 11.8054 11.6196C9.02014 11.526 6.81055 9.24337 6.81055 6.44Z" fill="#34405F"/>
<path fill-rule="evenodd" clip-rule="evenodd" d="M12.1732 12.4375C14.1014 12.4375 16.0677 12.9214 17.5873 13.9363C18.9531 14.8454 19.7357 16.1198 19.7357 17.4913C19.7357 18.8626 18.9533 20.1393 17.5879 21.0532L17.5878 21.0533C16.0636 22.0732 14.0948 22.56 12.1657 22.56C10.237 22.56 8.26862 22.0734 6.74452 21.0539C5.37841 20.1448 4.5957 18.8703 4.5957 17.4987C4.5957 16.1274 5.37815 14.8507 6.74349 13.9368L6.74624 13.9349L6.74625 13.9349C8.27468 12.9215 10.2448 12.4375 12.1732 12.4375ZM7.57654 15.1842C6.52289 15.89 6.0957 16.7429 6.0957 17.4987C6.0957 18.2544 6.52271 19.1047 7.57613 19.8056L7.57778 19.8067C8.80356 20.6268 10.4648 21.06 12.1657 21.06C13.8666 21.06 15.5277 20.6269 16.7535 19.8068C17.8081 19.1007 18.2357 18.2474 18.2357 17.4913C18.2357 16.7355 17.8087 15.8853 16.7553 15.1844L16.7542 15.1837C15.5337 14.3686 13.875 13.9375 12.1732 13.9375C10.4723 13.9375 8.80797 14.3682 7.57654 15.1842Z" fill="#34405F"/>
</svg>
