<svg width="25" height="24" viewBox="0 0 25 24" fill="none" xmlns="http://www.w3.org/2000/svg">
<path fill-rule="evenodd" clip-rule="evenodd" d="M3.5542 10.0001C3.5542 9.58585 3.88999 9.25006 4.3042 9.25006H20.3042C20.7184 9.25006 21.0542 9.58585 21.0542 10.0001V18.0001C21.0542 19.5416 20.8069 20.808 19.9595 21.6554C19.1121 22.5028 17.8457 22.7501 16.3042 22.7501H8.3042C6.76265 22.7501 5.49629 22.5028 4.64887 21.6554C3.80145 20.808 3.5542 19.5416 3.5542 18.0001V10.0001ZM5.0542 10.7501V18.0001C5.0542 19.4585 5.30695 20.1922 5.70953 20.5947C6.11211 20.9973 6.84575 21.2501 8.3042 21.2501H16.3042C17.7627 21.2501 18.4963 20.9973 18.8989 20.5947C19.3014 20.1922 19.5542 19.4585 19.5542 18.0001V10.7501H5.0542Z" fill="#34405F"/>
<path fill-rule="evenodd" clip-rule="evenodd" d="M3.83071 6.07381C3.68443 6.24556 3.5835 6.53929 3.5835 7V8C3.5835 8.46071 3.68443 8.75444 3.83071 8.92619C3.9574 9.07493 4.21887 9.25 4.8335 9.25H19.8335C20.4092 9.25 20.6796 9.07991 20.8196 8.91945C20.9758 8.74039 21.0835 8.44239 21.0835 8V7C21.0835 6.55761 20.9758 6.25961 20.8196 6.08055C20.6796 5.92009 20.4092 5.75 19.8335 5.75H4.8335C4.21887 5.75 3.9574 5.92507 3.83071 6.07381ZM2.68878 5.10119C3.17959 4.52493 3.91812 4.25 4.8335 4.25H19.8335C20.7277 4.25 21.4574 4.52991 21.9499 5.09445C22.4262 5.64039 22.5835 6.34239 22.5835 7V8C22.5835 8.65761 22.4262 9.35961 21.9499 9.90555C21.4574 10.4701 20.7277 10.75 19.8335 10.75H4.8335C3.91812 10.75 3.17959 10.4751 2.68878 9.89881C2.21756 9.34556 2.0835 8.63929 2.0835 8V7C2.0835 6.36071 2.21756 5.65444 2.68878 5.10119Z" fill="#34405F"/>
<path fill-rule="evenodd" clip-rule="evenodd" d="M8.72393 2.81033C8.64682 2.73323 8.5117 2.73323 8.43459 2.81033L7.01459 4.23033C7.00827 4.23665 7.00247 4.24322 6.9972 4.25H10.1636L8.72393 2.81033ZM7.37393 1.74967C8.03682 1.08678 9.1217 1.08678 9.78459 1.74967L12.5046 4.46967C12.7191 4.68417 12.7833 5.00676 12.6672 5.28701C12.5511 5.56727 12.2776 5.75 11.9743 5.75H6.45426C6.24435 5.75 6.04404 5.66203 5.90201 5.50747C5.28982 4.84126 5.31001 3.81359 5.95393 3.16967L7.37393 1.74967Z" fill="#34405F"/>
<path fill-rule="evenodd" clip-rule="evenodd" d="M16.2228 2.81033C16.1457 2.73323 16.0106 2.73323 15.9335 2.81033L14.4938 4.25H17.6602C17.6549 4.24322 17.6491 4.23665 17.6428 4.23033L16.2228 2.81033ZM14.8728 1.74967C15.5357 1.08678 16.6206 1.08678 17.2835 1.74967L18.7035 3.16967C19.3474 3.81359 19.3676 4.84126 18.7554 5.50747C18.6133 5.66203 18.413 5.75 18.2031 5.75H12.6831C12.3798 5.75 12.1063 5.56727 11.9902 5.28701C11.8741 5.00676 11.9383 4.68417 12.1528 4.46967L14.8728 1.74967Z" fill="#34405F"/>
<path fill-rule="evenodd" clip-rule="evenodd" d="M8.52295 10.0001C8.52295 9.58585 8.85874 9.25006 9.27295 9.25006H15.3029C15.7172 9.25006 16.0529 9.58585 16.0529 10.0001V15.1301C16.0529 16.533 14.4921 17.3542 13.3369 16.5841L13.3337 16.5819L12.4459 15.9834C12.372 15.9348 12.2672 15.9281 12.1723 15.9885L11.2281 16.6113C10.0689 17.3553 8.52295 16.545 8.52295 15.1401V10.0001ZM10.0229 10.7501V15.1401C10.0229 15.3341 10.2349 15.4636 10.4151 15.3506L11.3555 14.7304C11.9396 14.3524 12.6934 14.3456 13.279 14.736L13.2822 14.7382L14.1701 15.3368C14.3348 15.4454 14.5529 15.3266 14.5529 15.1301V10.7501H10.0229Z" fill="#34405F"/>
</svg>
