<svg width="25" height="24" viewBox="0 0 25 24" fill="none" xmlns="http://www.w3.org/2000/svg">
<path fill-rule="evenodd" clip-rule="evenodd" d="M17.5756 8.96967C17.8685 8.67678 18.3434 8.67678 18.6363 8.96967L21.1963 11.5297C21.4892 11.8226 21.4892 12.2974 21.1963 12.5903L18.6363 15.1503C18.3434 15.4432 17.8685 15.4432 17.5756 15.1503C17.2827 14.8574 17.2827 14.3826 17.5756 14.0897L19.6053 12.06L17.5756 10.0303C17.2827 9.73744 17.2827 9.26256 17.5756 8.96967Z" fill="#34405F"/>
<path fill-rule="evenodd" clip-rule="evenodd" d="M9.67627 12.06C9.67627 11.6458 10.0121 11.31 10.4263 11.31H20.5963C21.0105 11.31 21.3463 11.6458 21.3463 12.06C21.3463 12.4742 21.0105 12.81 20.5963 12.81H10.4263C10.0121 12.81 9.67627 12.4742 9.67627 12.06Z" fill="#34405F"/>
<path fill-rule="evenodd" clip-rule="evenodd" d="M7.28531 6.66877C5.99887 7.89078 5.17627 9.68843 5.17627 12C5.17627 14.3116 5.99887 16.1092 7.28531 17.3312C8.57769 18.5589 10.3857 19.25 12.4263 19.25C12.8405 19.25 13.1763 19.5858 13.1763 20C13.1763 20.4142 12.8405 20.75 12.4263 20.75C10.0469 20.75 7.85485 19.9411 6.25223 18.4188C4.64367 16.8908 3.67627 14.6884 3.67627 12C3.67627 9.31157 4.64367 7.10922 6.25223 5.58123C7.85485 4.05888 10.0469 3.25 12.4263 3.25C12.8405 3.25 13.1763 3.58579 13.1763 4C13.1763 4.41421 12.8405 4.75 12.4263 4.75C10.3857 4.75 8.57769 5.44112 7.28531 6.66877Z" fill="#34405F"/>
</svg>
