<svg width="22" height="22" viewBox="0 0 22 22" fill="none" xmlns="http://www.w3.org/2000/svg">
<path fill-rule="evenodd" clip-rule="evenodd" d="M10.4837 0.268953C11.5191 0.244674 12.5961 0.50774 13.4501 1.10557L19.6288 5.4347C19.6286 5.43455 19.6291 5.43485 19.6288 5.4347C20.2484 5.86675 20.7707 6.53285 21.1361 7.23294C21.5017 7.93332 21.75 8.74279 21.75 9.5V16.78C21.75 19.5031 19.5254 21.74 16.79 21.74H5.21C2.47347 21.74 0.25 19.5019 0.25 16.77V9.36C0.25 8.64952 0.474406 7.88051 0.804179 7.20839C1.134 6.53617 1.60552 5.88684 2.16901 5.4484L7.55901 1.2484C8.38375 0.606938 9.44825 0.293232 10.4837 0.268953ZM8.48046 2.43201C8.48037 2.43208 8.48054 2.43194 8.48046 2.43201L3.09099 6.6316C2.75471 6.89314 2.4109 7.33903 2.15082 7.86911C1.89059 8.39949 1.75 8.94047 1.75 9.36V16.77C1.75 18.6781 3.30653 20.24 5.21 20.24H16.79C18.6946 20.24 20.25 18.6769 20.25 16.78V9.5C20.25 9.0472 20.0933 8.47667 19.8064 7.92706C19.5195 7.37739 19.1413 6.92326 18.7712 6.6653L18.7696 6.66423L12.5899 2.33442C12.5898 2.33436 12.59 2.33448 12.5899 2.33442C12.044 1.95237 11.2958 1.75032 10.5188 1.76854C9.74188 1.78676 9.00571 2.02359 8.48046 2.43201Z" fill="#34405F"/>
<path fill-rule="evenodd" clip-rule="evenodd" d="M11 13.24C11.4142 13.24 11.75 13.5758 11.75 13.99V16.99C11.75 17.4042 11.4142 17.74 11 17.74C10.5858 17.74 10.25 17.4042 10.25 16.99V13.99C10.25 13.5758 10.5858 13.24 11 13.24Z" fill="#34405F"/>
</svg>
