<svg width="68" height="80" viewBox="0 0 68 80" fill="none" xmlns="http://www.w3.org/2000/svg">
<g id="Vector">
<path d="M0.413598 26.2684L31.1429 1.02325C32.8037 -0.341085 35.1964 -0.341081 36.8571 1.02325L67.5864 26.2684C68.4033 26.9395 67.929 28.2652 66.8721 28.2652L55.9552 28.2652C54.9062 28.2652 53.8902 27.8988 53.0825 27.2291L36.8727 13.7898C35.2064 12.4083 32.7936 12.4083 31.1273 13.7898L14.9175 27.2291C14.1098 27.8988 13.0938 28.2653 12.0449 28.2653L1.12787 28.2653C0.0709728 28.2653 -0.403258 26.9395 0.413598 26.2684Z" fill="#1DCD00"/>
<path d="M18.1708 32.9163H20.7842C23.2709 32.9163 25.2867 34.9304 25.2868 37.4186L25.2867 60.8177C25.2864 65.468 27.0297 71.2808 34.0005 71.2808C40.9712 71.2808 42.7143 65.468 42.7143 60.8177V37.4187C42.7143 34.9305 44.7301 32.9163 47.2168 32.9163H49.83C52.3167 32.9163 54.3326 34.9285 54.3326 37.4167L54.3325 58.4926C54.3327 70.1182 51.4275 72.3708 47.3613 75.931C43.2952 79.4912 36.9052 80 34.0005 80C31.0958 80 25.2867 79.1269 21.8012 76.5123C18.3157 73.8977 13.6682 69.5369 13.6682 58.4926L13.6683 37.4192C13.6683 34.931 15.6841 32.9163 18.1708 32.9163Z" fill="#0743DF"/>
</g>
</svg>
